<?xml version="1.0" encoding="iso-8859-1"?>
<!-- Generator: Adobe Illustrator 21.0.0, SVG Export Plug-In . SVG Version: 6.00 Build 0)  -->
<svg xmlns="http://www.w3.org/2000/svg" xmlns:xlink="http://www.w3.org/1999/xlink" version="1.1" id="Capa_1" x="0px" y="0px" viewBox="0 0 512 512" style="enable-background:new 0 0 512 512;" xml:space="preserve" width="512" height="512">
<g>
	<path d="M136.142,190.26c-2.321,5.605-1.038,12.057,3.252,16.347l30.588,30.588C191.465,258.678,221.577,271,252.595,271   c53.22,0,100.206-36.356,112.973-87.426L373.712,151H392c8.284,0,15-6.716,15-15v-22.918C407,84.364,383.636,61,354.918,61   c-19.683,0-37.395,10.841-46.35,28.33C289.604,38.708,239.514,0,180,0h-60c-6.067,0-11.537,3.655-13.858,9.26   c-2.321,5.605-1.038,12.057,3.252,16.347C110.939,27.81,135,45.519,135,80.377c0,40.538,26.363,75.54,63.137,87.48l6.113,1.984   C187.31,177.114,168.669,181,150,181C143.933,181,138.463,184.655,136.142,190.26z M249.321,178.481   c4.784-3.19,7.324-8.834,6.539-14.53s-4.759-10.442-10.228-12.218l-38.173-12.392C182.061,130.849,165,107.16,165,80.377   c0-17.834-4.763-35.299-13.464-50.377H180c58,0,107,48.542,107,106c0,6.957,4.783,13,11.554,14.599   c6.772,1.598,13.751-1.669,16.863-7.89l19.751-39.502C338.932,95.677,346.5,91,354.918,91C367.094,91,377,100.906,377,113.082V121   h-15c-6.883,0-12.883,4.685-14.552,11.362l-10.984,43.936C327.091,213.789,291.819,241,252.595,241   c-23.122,0-45.501-9.119-61.401-25.019l-8.277-8.277C222.448,199.759,244.9,180.918,249.321,178.481z"/>
	<path d="M467,151c-24.813,0-45,20.187-45,45v89.995c0,4-1.555,7.761-4.378,10.592c-2.177-4.545-5.135-8.736-8.804-12.405   c-17.635-17.636-46.12-17.516-63.57-0.065l-82.28,81.28c-2.53,2.53-4.856,5.208-6.972,8.015c-2.131-2.828-4.476-5.528-7.028-8.08   l-82.15-81.15c-17.588-17.589-46.044-17.592-63.635,0c-3.669,3.669-6.627,7.86-8.804,12.405C91.555,293.756,90,289.995,90,285.995   V196c0-24.813-20.187-45-45-45S0,171.187,0,196v133.381c0,13.59,3.696,26.933,10.688,38.587   c1.161,1.936-6.086-7.049,116.349,138.685c2.85,3.39,7.053,5.347,11.481,5.347h234.963c4.429,0,8.631-1.957,11.481-5.347   c122.058-145.285,115.186-136.745,116.349-138.685C508.304,356.314,512,342.971,512,329.381V196C512,171.187,491.813,151,467,151z    M241,482h-95.496L35.854,351.576C32.021,344.815,30,337.166,30,329.381V196c0-8.271,6.729-15,15-15s15,6.729,15,15v89.995   c0,12.02,4.681,23.32,13.18,31.82l81.213,81.213c5.857,5.858,15.355,5.858,21.213,0c5.858-5.858,5.858-15.355,0-21.213   l-51.211-51.211c-5.847-5.847-5.847-15.361,0-21.208c5.848-5.847,15.361-5.848,21.274,0.065l82.15,81.15   c8.5,8.5,13.18,19.8,13.18,31.82V482z M482,329.381c0,7.785-2.021,15.434-5.854,22.196L366.496,482H271v-63.569   c0-12.02,4.681-23.321,13.115-31.755l82.28-81.28c5.848-5.847,15.361-5.847,21.209,0c5.847,5.847,5.847,15.361,0,21.208   l-51.211,51.211c-5.858,5.858-5.858,15.355,0,21.213c5.857,5.858,15.355,5.858,21.213,0l81.214-81.213   c8.499-8.5,13.18-19.8,13.18-31.82V196c0-8.271,6.729-15,15-15s15,6.729,15,15V329.381z"/>
</g>















</svg>
