<?xml version="1.0" encoding="iso-8859-1"?>
<!-- Generator: Adobe Illustrator 19.0.0, SVG Export Plug-In . SVG Version: 6.00 Build 0)  -->
<svg version="1.1" id="Capa_1" xmlns="http://www.w3.org/2000/svg" xmlns:xlink="http://www.w3.org/1999/xlink" x="0px" y="0px"
	 viewBox="0 0 512.008 512.008" style="enable-background:new 0 0 512.008 512.008;" xml:space="preserve">
<g>
	<g>
		<path d="M368.008,144.004c-26.464,0-48,21.536-48,48s21.536,48,48,48s48-21.536,48-48S394.472,144.004,368.008,144.004z
			 M368.008,208.004c-8.832,0-16-7.2-16-16s7.168-16,16-16c8.832,0,16,7.2,16,16S376.84,208.004,368.008,208.004z"/>
	</g>
</g>
<g>
	<g>
		<path d="M176.008,144.004c-26.464,0-48,21.536-48,48s21.536,48,48,48s48-21.536,48-48S202.472,144.004,176.008,144.004z
			 M176.008,208.004c-8.832,0-16-7.2-16-16s7.168-16,16-16c8.832,0,16,7.2,16,16S184.84,208.004,176.008,208.004z"/>
	</g>
</g>
<g>
	<g>
		<path d="M304.008,352.004h-96c-8.832,0-16,7.168-16,16c0,8.832,7.168,16,16,16h96c8.832,0,16-7.168,16-16
			C320.008,359.172,312.84,352.004,304.008,352.004z"/>
	</g>
</g>
<g>
	<g>
		<path d="M256.008,0.004c-141.152,0-256,114.848-256,256c0,26.976,4.256,52.928,12,77.376l-7.328,7.328
			c-6.24,6.24-6.24,16.352,0,22.624c3.136,3.104,7.232,4.672,11.328,4.672c3.104,0,6.048-1.184,8.736-2.976
			c41.024,86.72,129.12,146.976,231.264,146.976c141.152,0,256-114.848,256-256S397.16,0.004,256.008,0.004z M256.008,480.004
			c-93.216,0-173.248-57.28-206.944-138.432l60.16-60.16c18.72,13.984,41.664,22.592,66.784,22.592c61.76,0,112-50.24,112-112
			s-50.24-112-112-112s-112,50.24-112,112c0,25.12,8.608,48.064,22.624,66.752l-48.48,48.48c-3.872-16.48-6.144-33.568-6.144-51.232
			c0-123.488,100.48-224,224-224s224,100.512,224,224S379.528,480.004,256.008,480.004z M96.008,192.004c0-44.128,35.904-80,80-80
			s80,35.872,80,80s-35.904,80-80,80c-22.048,0-42.016-8.96-56.512-23.424c0,0-0.032-0.032-0.032-0.064c0-0.032-0.032,0-0.032,0
			C104.968,234.02,96.008,214.052,96.008,192.004z"/>
	</g>
</g>
<g>
</g>
<g>
</g>
<g>
</g>
<g>
</g>
<g>
</g>
<g>
</g>
<g>
</g>
<g>
</g>
<g>
</g>
<g>
</g>
<g>
</g>
<g>
</g>
<g>
</g>
<g>
</g>
<g>
</g>
</svg>
